<svg width="14" height="18" viewBox="0 0 14 18" fill="none" xmlns="http://www.w3.org/2000/svg">
<rect x="0.499405" y="3.58307" width="12.6799" height="13.884" stroke="white" stroke-linejoin="round"/>
<mask id="path-2-inside-1_2_295" fill="white">
<path d="M10.4994 4.18376C10.4994 3.70315 10.4047 3.22725 10.2208 2.78322C10.0369 2.33919 9.76732 1.93574 9.42748 1.5959C9.08763 1.25606 8.68418 0.986478 8.24016 0.802556C7.79613 0.618635 7.32023 0.523972 6.83961 0.523972C6.359 0.523972 5.8831 0.618635 5.43907 0.802557C4.99505 0.986478 4.5916 1.25606 4.25175 1.5959C3.91191 1.93574 3.64233 2.33919 3.45841 2.78322C3.27449 3.22725 3.17982 3.70315 3.17982 4.18376L6.83962 4.18376H10.4994Z"/>
</mask>
<path d="M10.4994 4.18376C10.4994 3.70315 10.4047 3.22725 10.2208 2.78322C10.0369 2.33919 9.76732 1.93574 9.42748 1.5959C9.08763 1.25606 8.68418 0.986478 8.24016 0.802556C7.79613 0.618635 7.32023 0.523972 6.83961 0.523972C6.359 0.523972 5.8831 0.618635 5.43907 0.802557C4.99505 0.986478 4.5916 1.25606 4.25175 1.5959C3.91191 1.93574 3.64233 2.33919 3.45841 2.78322C3.27449 3.22725 3.17982 3.70315 3.17982 4.18376L6.83962 4.18376H10.4994Z" stroke="white" stroke-width="2" mask="url(#path-2-inside-1_2_295)"/>
</svg>
