<svg width="18" height="19" viewBox="0 0 18 19" fill="none" xmlns="http://www.w3.org/2000/svg">
<g clip-path="url(#clip0_2_302)">
<path d="M17.6711 9.3508C17.6711 4.47776 13.7125 0.523666 8.83509 0.523666C3.95763 0.523666 -0.00088501 4.47776 -0.00088501 9.3508C-0.00088501 12.0347 1.21848 14.4536 3.12705 16.0772C3.14472 16.0949 3.16239 16.0949 3.16239 16.1125C3.32144 16.2362 3.48049 16.3599 3.65721 16.4836C3.74557 16.5367 3.81625 16.6062 3.90461 16.6769C5.36483 17.667 7.08856 18.196 8.85276 18.1956C10.617 18.196 12.3407 17.667 13.8009 16.6769C13.8893 16.6239 13.9599 16.5543 14.0483 16.5002C14.2074 16.3776 14.3841 16.2539 14.5431 16.1302C14.5608 16.1125 14.5785 16.1125 14.5785 16.0949C16.4517 14.4525 17.6711 12.0347 17.6711 9.3508ZM8.83509 17.0834C7.17392 17.0834 5.65414 16.5532 4.39943 15.6707C4.4171 15.5294 4.45244 15.3891 4.48779 15.2477C4.59309 14.8646 4.74753 14.4967 4.94726 14.1532C5.14165 13.8174 5.37139 13.517 5.65414 13.2519C5.91922 12.9868 6.23731 12.7405 6.55541 12.5461C6.89117 12.3517 7.24461 12.2103 7.63339 12.1043C8.0252 11.9987 8.4293 11.9456 8.83509 11.9464C10.0397 11.9378 11.2001 12.3999 12.0691 13.2342C12.4755 13.6407 12.7936 14.1178 13.0233 14.6645C13.147 14.9826 13.2354 15.3184 13.2884 15.6707C11.9842 16.5876 10.4294 17.0809 8.83509 17.0834ZM6.13128 8.91011C5.97557 8.5536 5.89727 8.16811 5.90154 7.7791C5.90154 7.39142 5.97223 7.00264 6.13128 6.6492C6.29033 6.29576 6.50239 5.97877 6.76747 5.71369C7.03255 5.44862 7.35064 5.23766 7.70408 5.07861C8.05752 4.91956 8.4463 4.84887 8.83509 4.84887C9.24154 4.84887 9.61265 4.91956 9.96609 5.07861C10.3195 5.23766 10.6376 5.44972 10.9027 5.71369C11.1678 5.97877 11.3798 6.29687 11.5389 6.6492C11.6979 7.00264 11.7686 7.39142 11.7686 7.7791C11.7686 8.18556 11.6979 8.55667 11.5389 8.909C11.3854 9.25721 11.1698 9.57459 10.9027 9.84562C10.6316 10.1123 10.3142 10.3275 9.96609 10.4807C9.23583 10.7808 8.41667 10.7808 7.68641 10.4807C7.33829 10.3275 7.02092 10.1123 6.7498 9.84562C6.4823 9.57854 6.27187 9.26099 6.13128 8.91011ZM14.3311 14.7706C14.3311 14.7352 14.3134 14.7175 14.3134 14.6822C14.1396 14.1293 13.8834 13.6058 13.5535 13.1293C13.2233 12.6492 12.8175 12.2259 12.3518 11.8757C11.9962 11.6081 11.6107 11.3828 11.2031 11.2041C11.3886 11.0818 11.5604 10.94 11.7156 10.7811C11.9791 10.521 12.2105 10.2303 12.4048 9.9152C12.7962 9.27217 12.9983 8.53181 12.988 7.7791C12.9935 7.2219 12.8852 6.66944 12.6699 6.15549C12.4573 5.66028 12.1513 5.21066 11.7686 4.8312C11.3865 4.45571 10.9368 4.1559 10.4432 3.9476C9.92843 3.73266 9.37525 3.62481 8.81741 3.63061C8.2595 3.62516 7.70632 3.73339 7.1916 3.94871C6.69375 4.15656 6.24295 4.46273 5.8662 4.84887C5.49072 5.23057 5.1909 5.67992 4.9826 6.17316C4.76728 6.68711 4.65904 7.23957 4.66451 7.79677C4.66451 8.18556 4.71752 8.55667 4.82355 8.909C4.92959 9.28011 5.07096 9.61588 5.26535 9.93287C5.44207 10.251 5.68948 10.5337 5.95456 10.7988C6.11361 10.9578 6.29033 11.0981 6.48472 11.2218C6.07587 11.4052 5.69027 11.6366 5.33604 11.911C4.87657 12.2645 4.47012 12.6875 4.13435 13.147C3.80108 13.6215 3.54464 14.1455 3.37446 14.6999C3.35678 14.7352 3.35678 14.7706 3.35678 14.7882C1.9607 13.3756 1.09478 11.4692 1.09478 9.3508C1.09478 5.09628 4.57615 1.61822 8.83509 1.61822C13.094 1.61822 16.5754 5.09628 16.5754 9.3508C16.5731 11.383 15.7662 13.3317 14.3311 14.7706Z" fill="white"/>
</g>
<defs>
<clipPath id="clip0_2_302">
<rect width="17.6719" height="17.6719" fill="white" transform="translate(-0.00088501 0.523666)"/>
</clipPath>
</defs>
</svg>
